<svg id="Layer_1" data-name="Layer 1" xmlns="http://www.w3.org/2000/svg" viewBox="0 0 470.97 71.34"><defs><style>.cls-1{fill:#fff;}</style></defs><path class="cls-1" d="M120.35,24l-6.1,3.46a11.75,11.75,0,0,0-9.67-4.65,11.9,11.9,0,0,0-9,3.78A12.48,12.48,0,0,0,92,35.67a12.67,12.67,0,0,0,3.62,9.12,12,12,0,0,0,9,3.73,11.7,11.7,0,0,0,9.67-4.59l6.1,3.45a20,20,0,0,1-15.82,7.73A19.62,19.62,0,0,1,84.71,35.67C84.49,25.14,93.78,16,104.53,16.23A19.93,19.93,0,0,1,120.35,24Z"/><path class="cls-1" d="M133.9,48.25h20v6.32h-27V16.77h7.07Z"/><path class="cls-1" d="M189,23.08H166.57v9.35h20.79v6H166.57v9.78h22.84v6.32H159.5V16.77H189Z"/><path class="cls-1" d="M233.64,54.57h-8.43l-3.45-8.32H204.32l-3.46,8.32h-8.37l15.93-37.8h9.18ZM206.21,40.63h13.66L213,24.54Z"/><path class="cls-1" d="M239.31,16.77h16.58c11.66,0,16.31,3.72,16.31,12.42,0,6.31-2.49,9.93-8.27,11.44l9.45,13.94h-8.1l-8.69-13c-.7.06-1.51.06-2.38.06h-7.83v13h-7.07Zm7.07,6.37v13h9.83c6.27,0,8.64-1.89,8.64-6.48s-2.37-6.53-8.64-6.53Z"/><path class="cls-1" d="M307,21.68h-22V34.26h20.08v4.65H285.05V54.57h-5.46V16.77H307Z"/><path class="cls-1" d="M332,55.11c-10.74.27-20.25-8.91-20-19.44,0-10.75,9-19.44,20-19.44a19.65,19.65,0,0,1,20,19.44C352.22,46.2,342.88,55.38,332,55.11ZM321.87,25.57a13.82,13.82,0,0,0-4.16,10.1,14,14,0,0,0,4.16,10.15,14.47,14.47,0,0,0,20.31,0A14.36,14.36,0,0,0,332,21.36,13.7,13.7,0,0,0,321.87,25.57Z"/><path class="cls-1" d="M360.64,16.77H377c11.24,0,15.82,3.61,15.82,12.09,0,6.32-2.59,9.88-8.64,11.23l9.94,14.48h-6.26L378.46,40.8c-.81.05-1.72.11-2.75.11H366.1V54.57h-5.46Zm5.46,4.91v15h11.12c7.24,0,9.89-2.22,9.89-7.45s-2.65-7.51-9.89-7.51Z"/><path class="cls-1" d="M434.41,23.68l-4.65,2.75a13.39,13.39,0,0,0-10.85-5.07,14.19,14.19,0,0,0-14.2,14.31,14,14,0,0,0,4.1,10.15A13.85,13.85,0,0,0,418.91,50a13.4,13.4,0,0,0,10.85-5.08l4.65,2.76a19.86,19.86,0,0,1-15.55,7.45c-10.64.27-20-8.91-19.82-19.44a19.87,19.87,0,0,1,35.37-12Z"/><path class="cls-1" d="M470.48,21.68H447.21V33.13H468.7v4.64H447.21V49.65H471v4.92H441.75V16.77h28.73Z"/><path class="cls-1" d="M67.58,26.58,44.76,3.76A12.85,12.85,0,0,0,28.72,2l27.1,27.17c5,5.17,1.58,9.51,1.58,9.51L46,49.84,24.25,28.09c-8.75,6.61-4.43,10.08-4.43,10.08l18.91,19L27.5,68.4a12.85,12.85,0,0,0,17.26-.83L67.58,44.75A12.84,12.84,0,0,0,67.58,26.58Z"/><path class="cls-1" d="M30.29,57.93l-17-17c-5.1-5.17-1-9-1-9l12-12,22,22.05c8-5.1,2.4-10.56,2.4-10.56L24,6.61,3.76,26.83A12.86,12.86,0,0,0,3.76,45L23.49,64.73Z"/></svg>